<svg t="1676446450693" class="icon" viewBox="0 0 1024 1024" version="1.1" xmlns="http://www.w3.org/2000/svg" p-id="1816" width="128" height="128"><path d="M512 1023.552A511.104 511.104 0 0 1 0.448 512 511.104 511.104 0 0 1 512 0.448 511.104 511.104 0 0 1 1023.552 512 511.104 511.104 0 0 1 512 1023.552z m0-962.88C265.28 60.672 60.672 265.28 60.672 512c0 246.72 204.608 451.328 451.328 451.328 246.72 0 451.328-204.608 451.328-451.328C963.328 265.28 758.72 60.672 512 60.672z" p-id="1817"></path><path d="M451.84 782.784a85.76 85.76 0 0 1-72.256-36.096c-12.032-18.048-18.048-36.096-18.048-54.144V331.456c0-48.128 42.112-90.24 90.24-90.24 18.112 0 36.16 6.016 54.208 18.048l240.704 180.48c42.112 30.08 48.128 84.288 18.048 126.4l-18.048 18.048-240.704 180.544c-18.048 12.032-36.096 18.048-54.144 18.048z m0-481.408c-18.048 0-30.08 12.032-30.08 30.08v361.088c0 6.016 0 12.032 6.016 18.048 12.032 12.032 30.08 18.048 42.112 6.016l240.704-180.48 6.016-6.08c12.032-12.032 6.016-30.08-6.016-42.112L469.888 307.392c-6.016-6.016-12.032-6.016-18.048-6.016z" p-id="1818"></path></svg>
