<svg t="1668736223556" class="icon" viewBox="0 0 1024 1024" version="1.1" xmlns="http://www.w3.org/2000/svg" p-id="1916" width="128" height="128"><path d="M90.624 546.816a51.2 51.2 0 0 1 4.096-75.264L353.28 238.08a236.544 236.544 0 0 1 317.44 0l258.56 233.472 4.608 4.608a51.2 51.2 0 0 1-5.632 75.264L665.6 777.216a236.544 236.544 0 0 1-307.2 0l-262.656-225.28z m307.2 181.76a172.544 172.544 0 0 0 225.792 0L877.568 512l-249.856-225.28a172.544 172.544 0 0 0-231.424 0L146.432 512z" fill="#5A5A68" p-id="1917"></path><path d="M512 646.656A134.656 134.656 0 1 1 646.656 512 134.656 134.656 0 0 1 512 646.656z m0-64A70.656 70.656 0 1 0 441.856 512 70.144 70.144 0 0 0 512 582.656z" fill="#5A5A68" p-id="1918"></path></svg>